<?xml version="1.0" encoding="utf-8"?>
<!-- Generator: Adobe Illustrator 27.0.1, SVG Export Plug-In . SVG Version: 6.00 Build 0)  -->
<svg version="1.1" id="Layer_1" xmlns="http://www.w3.org/2000/svg" xmlns:xlink="http://www.w3.org/1999/xlink" x="0px" y="0px"
	 viewBox="0 0 2615.56 2046.04" style="enable-background:new 0 0 2615.56 2046.04;" xml:space="preserve">
<style type="text/css">
	.st0{opacity:0.14;fill:#6D79FF;}
	.st1{opacity:0.18;fill:#6D79FF;}
	.st2{fill:#C1D7FF;}
	.st3{fill:#8AA8FF;}
	.st4{fill:#262A95;}
	.st5{fill:#304064;}
	.st6{opacity:0.32;fill:#6D8192;}
	.st7{fill:#DEEBFF;}
	.st8{fill:#CFE3FF;}
	.st9{fill:#7D9CEA;}
	.st10{fill:#353DA5;}
	.st11{fill:#9FBAFF;}
	.st12{fill:#EF487D;}
	.st13{fill:#FFFFFF;}
	.st14{font-family:'Poppins-Black';}
	.st15{font-size:107.6303px;}
	.st16{opacity:0.15;fill:#7D5EE0;}
</style>
<g>
	<g>
		<g>
			<path class="st0" d="M604.11,1823.97c0,0-651.85-380.24-316.61-842.7s614.6-842.7,1108.14-616.61s335.24,205.54,689.09,143.88
				c353.86-61.66,446.98,1305.16-102.43,1325.71S604.11,1823.97,604.11,1823.97z"/>
			<path class="st1" d="M1906.24,380.72c0,51.08-9.59,82.21-55.87,82.21c-46.29,0-130.37-51.69-130.37-102.77
				s65.46-61.66,111.74-61.66C1878.03,298.51,1906.24,329.64,1906.24,380.72z"/>
		</g>
		<g>
			<g>
				<polygon class="st2" points="686.13,621.31 712.82,601.32 699.01,626.76 				"/>
				<path class="st3" d="M727.43,596.24l1214.55,0c14.61,0,26.45,13.67,26.45,30.54v779.97v23.35l-1267.45,0v-23.35V626.77
					C700.98,609.91,712.82,596.24,727.43,596.24z"/>
				<path class="st2" d="M1941.98,596.24l-1214.55,0c-14.61,0-26.45,13.67-26.45,30.54v168.43L1887.82,690l75.34-81.51
					C1958.96,601.2,1949.73,596.24,1941.98,596.24z"/>
				<path class="st4" d="M672.17,1428.31l1267.45,0V648.35c0-16.87-11.84-30.54-26.45-30.54H698.61
					c-14.61,0-26.45,13.67-26.45,30.54V1428.31z"/>
				<rect x="701.2" y="661.17" class="st5" width="1207.41" height="723.78"/>
				<polygon class="st6" points="1388.79,666.18 702.18,666.18 702.18,1384.95 1092.51,1384.95 				"/>
			</g>
			<polygon class="st7" points="2061.17,1819.25 579.42,1819.25 672.17,1428.31 1968.43,1428.31 			"/>
			<polygon class="st8" points="1975.25,1695.89 651.2,1705.88 718.68,1442.88 1921.91,1442.88 			"/>
			<rect x="579.42" y="1819.25" class="st9" width="1481.75" height="36.22"/>
			<g>
				<polygon class="st10" points="1111.1,1624.79 1098.52,1677.85 1542.07,1677.85 1529.45,1624.79 				"/>
				<g>
					<polygon class="st10" points="1921.45,1622.16 1937.58,1675.22 1840.8,1675.22 1825.68,1622.16 					"/>
					<polygon class="st10" points="1788.88,1622.16 1805.01,1675.22 1708.24,1675.22 1693.12,1622.16 					"/>
					<polygon class="st10" points="1657.41,1622.16 1673.54,1675.22 1576.77,1675.22 1561.65,1622.16 					"/>
				</g>
				<g>
					<polygon class="st10" points="709.28,1624.79 693.15,1677.85 789.92,1677.85 805.04,1624.79 					"/>
					<polygon class="st10" points="841.84,1624.79 825.71,1677.85 922.49,1677.85 937.61,1624.79 					"/>
					<polygon class="st10" points="973.31,1624.79 957.18,1677.85 1053.96,1677.85 1069.08,1624.79 					"/>
				</g>
				<g>
					<polygon class="st10" points="866.72,1543.38 850.59,1596.44 947.36,1596.44 962.48,1543.38 					"/>
					<polygon class="st10" points="999.28,1543.38 983.15,1596.44 1079.93,1596.44 1095.05,1543.38 					"/>
					<polygon class="st10" points="1130.75,1543.38 1114.62,1596.44 1219.46,1596.44 1226.52,1543.38 					"/>
				</g>
				<g>
					<g>
						<polygon class="st10" points="733.77,1543.38 717.64,1596.44 814.42,1596.44 829.54,1543.38 						"/>
					</g>
					<g>
						<polygon class="st10" points="1901.6,1543.38 1917.73,1596.44 1820.96,1596.44 1805.84,1543.38 						"/>
					</g>
					<g>
						<polygon class="st10" points="1769.31,1543.38 1785.44,1596.44 1688.66,1596.44 1673.54,1543.38 						"/>
					</g>
					<g>
						<polygon class="st10" points="1637.02,1543.38 1653.15,1596.44 1556.37,1596.44 1541.25,1543.38 						"/>
					</g>
					<g>
						<polygon class="st10" points="1504.72,1543.38 1520.85,1596.44 1416.01,1596.44 1408.96,1543.38 						"/>
					</g>
					<g>
						<polygon class="st10" points="1376.46,1543.38 1392.59,1596.44 1246.76,1596.44 1260.37,1543.38 						"/>
					</g>
				</g>
				<g>
					<g>
						<polygon class="st10" points="756.09,1462.6 740.51,1515.66 833.99,1515.66 848.59,1462.6 						"/>
					</g>
					<g>
						<polygon class="st10" points="890.64,1462.6 875.06,1515.66 968.54,1515.66 983.15,1462.6 						"/>
					</g>
					<g>
						<polygon class="st10" points="1025.2,1462.6 1009.62,1515.66 1103.1,1515.66 1117.71,1462.6 						"/>
					</g>
					<g>
						<polygon class="st10" points="1159.76,1462.6 1144.18,1515.66 1245.72,1515.66 1252.27,1462.6 						"/>
					</g>
					<g>
						<polygon class="st10" points="1873.33,1462.6 1888.91,1515.66 1795.43,1515.66 1780.82,1462.6 						"/>
					</g>
					<g>
						<polygon class="st10" points="1745.54,1462.6 1761.12,1515.66 1667.64,1515.66 1653.03,1462.6 						"/>
					</g>
					<g>
						<polygon class="st10" points="1617.75,1462.6 1633.33,1515.66 1539.85,1515.66 1525.24,1462.6 						"/>
					</g>
					<g>
						<polygon class="st10" points="1489.96,1462.6 1505.54,1515.66 1396.2,1515.66 1397.45,1462.6 						"/>
					</g>
					<g>
						<polygon class="st10" points="1359.02,1462.6 1374.6,1515.66 1265.99,1515.66 1279.14,1462.6 						"/>
					</g>
				</g>
			</g>
			<g>
				<polygon class="st3" points="1111.1,1619.75 1098.52,1672.81 1542.07,1672.81 1529.45,1619.75 				"/>
				<g>
					<polygon class="st3" points="1921.45,1617.12 1937.58,1670.18 1840.8,1670.18 1825.68,1617.12 					"/>
					<polygon class="st3" points="1788.88,1617.12 1805.01,1670.18 1708.24,1670.18 1693.12,1617.12 					"/>
					<polygon class="st3" points="1657.41,1617.12 1673.54,1670.18 1576.77,1670.18 1561.65,1617.12 					"/>
				</g>
				<g>
					<polygon class="st3" points="709.28,1619.75 693.15,1672.81 789.92,1672.81 805.04,1619.75 					"/>
					<polygon class="st3" points="841.84,1619.75 825.71,1672.81 922.49,1672.81 937.61,1619.75 					"/>
					<polygon class="st3" points="973.31,1619.75 957.18,1672.81 1053.96,1672.81 1069.08,1619.75 					"/>
				</g>
				<g>
					<polygon class="st3" points="866.72,1538.34 850.59,1591.4 947.36,1591.4 962.48,1538.34 					"/>
					<polygon class="st3" points="999.28,1538.34 983.15,1591.4 1079.93,1591.4 1095.05,1538.34 					"/>
					<polygon class="st3" points="1130.75,1538.34 1114.62,1591.4 1219.46,1591.4 1226.52,1538.34 					"/>
				</g>
				<g>
					<g>
						<polygon class="st3" points="733.77,1538.34 717.64,1591.4 814.42,1591.4 829.54,1538.34 						"/>
					</g>
					<g>
						<polygon class="st3" points="1901.6,1538.34 1917.73,1591.4 1820.96,1591.4 1805.84,1538.34 						"/>
					</g>
					<g>
						<polygon class="st3" points="1769.31,1538.34 1785.44,1591.4 1688.66,1591.4 1673.54,1538.34 						"/>
					</g>
					<g>
						<polygon class="st3" points="1637.02,1538.34 1653.15,1591.4 1556.37,1591.4 1541.25,1538.34 						"/>
					</g>
					<g>
						<polygon class="st3" points="1504.72,1538.34 1520.85,1591.4 1416.01,1591.4 1408.96,1538.34 						"/>
					</g>
					<g>
						<polygon class="st3" points="1376.46,1538.34 1392.59,1591.4 1246.76,1591.4 1260.37,1538.34 						"/>
					</g>
				</g>
				<g>
					<g>
						<polygon class="st3" points="756.09,1457.56 740.51,1510.62 833.99,1510.62 848.59,1457.56 						"/>
					</g>
					<g>
						<polygon class="st3" points="890.64,1457.56 875.06,1510.62 968.54,1510.62 983.15,1457.56 						"/>
					</g>
					<g>
						<polygon class="st3" points="1025.2,1457.56 1009.62,1510.62 1103.1,1510.62 1117.71,1457.56 						"/>
					</g>
					<g>
						<polygon class="st3" points="1159.76,1457.56 1144.18,1510.62 1245.72,1510.62 1252.27,1457.56 						"/>
					</g>
					<g>
						<polygon class="st3" points="1873.33,1457.56 1888.91,1510.62 1795.43,1510.62 1780.82,1457.56 						"/>
					</g>
					<g>
						<polygon class="st3" points="1745.54,1457.56 1761.12,1510.62 1667.64,1510.62 1653.03,1457.56 						"/>
					</g>
					<g>
						<polygon class="st3" points="1617.75,1457.56 1633.33,1510.62 1539.85,1510.62 1525.24,1457.56 						"/>
					</g>
					<g>
						<polygon class="st3" points="1489.96,1457.56 1505.54,1510.62 1396.2,1510.62 1397.45,1457.56 						"/>
					</g>
					<g>
						<polygon class="st3" points="1359.02,1457.56 1374.6,1510.62 1265.99,1510.62 1279.14,1457.56 						"/>
					</g>
				</g>
			</g>
			<g>
				<path class="st3" d="M1454.13,1697.91c6.5,0,12.27,4.18,14.3,10.36l23.88,72.86c1.5,4.58,0.72,9.61-2.11,13.51
					c-2.83,3.91-7.36,6.22-12.18,6.22h-345.24c-4.7,0-9.13-2.2-11.97-5.93s-3.78-8.59-2.53-13.12l20.15-72.86
					c1.8-6.52,7.74-11.03,14.5-11.03H1454.13z"/>
			</g>
			<path class="st11" d="M1510.91,1818.95c0,8.89-7.2,16.09-16.09,16.09h-377.85c-8.89,0-16.09-7.2-16.09-16.09H1510.91z"/>
		</g>
	</g>
	<g>
		<g>
			<path class="st12" d="M1534.89,1239.11h-430.42c-29.15,0-52.78,23.63-52.78,52.78l0,0c0,29.15,23.63,52.78,52.78,52.78h430.42
				c29.15,0,52.78-23.63,52.78-52.78l0,0C1587.66,1262.74,1564.03,1239.11,1534.89,1239.11z"/>
			<text transform="matrix(1 0 0 1 1129.6207 1329.4282)" class="st13 st14 st15">GAGAL</text>
		</g>
		<g>
			<circle class="st12" cx="1319.68" cy="938.01" r="236.54"/>
			<path class="st13" d="M1446.73,811.02c-13.74-13.74-36.02-13.74-49.76,0l-77.26,77.26l-77.26-77.26
				c-13.74-13.74-36.02-13.74-49.76,0c-13.74,13.74-13.74,36.02,0,49.76l77.26,77.26l-77.21,77.21c-13.74,13.74-13.74,36.02,0,49.76
				c6.87,6.87,15.88,10.3,24.88,10.3s18.01-3.43,24.88-10.3l77.21-77.21l77.21,77.21c6.87,6.87,15.88,10.3,24.88,10.3
				c9,0,18.01-3.43,24.88-10.3c13.74-13.74,13.74-36.02,0-49.76l-77.21-77.21l77.26-77.26
				C1460.47,847.04,1460.47,824.76,1446.73,811.02z"/>
		</g>
	</g>
	<path class="st16" d="M1596.58,183.55c-35.36-3.16-60.49,29.72-60.49,29.72c16.45-53.43,10.68-108.17-52.62-110.95
		c-104.19-4.58-146.02,121.61-146.02,121.61s17.79-63.24-51.07-52.38c-72.37,11.41-123.87,91.9-123.87,91.9h354.96h107.3
		C1624.78,263.44,1647.67,188.12,1596.58,183.55z"/>
	<path class="st16" d="M2394.49,396.24c-31.22-2.79-53.41,26.24-53.41,26.24c14.52-47.17,9.43-95.5-46.46-97.96
		c-91.99-4.05-128.91,107.36-128.91,107.36s15.71-55.84-45.08-46.25c-63.89,10.08-109.36,81.14-109.36,81.14h313.38h94.73
		C2419.39,466.77,2439.59,400.27,2394.49,396.24z"/>
	<path class="st16" d="M497.34,485.98c-22.87-2.05-39.11,19.22-39.11,19.22c10.63-34.54,6.91-69.94-34.02-71.74
		c-67.37-2.96-94.41,78.62-94.41,78.62s11.5-40.89-33.02-33.87c-46.79,7.38-80.09,59.42-80.09,59.42h229.5h69.38
		C515.57,537.64,530.37,488.94,497.34,485.98z"/>
</g>
</svg>
