<?xml version="1.0" encoding="utf-8"?>
<!-- Generator: Adobe Illustrator 27.0.1, SVG Export Plug-In . SVG Version: 6.00 Build 0)  -->
<svg version="1.1" id="Layer_1" xmlns="http://www.w3.org/2000/svg" xmlns:xlink="http://www.w3.org/1999/xlink" x="0px" y="0px"
	 viewBox="0 0 2615.56 2046.04" style="enable-background:new 0 0 2615.56 2046.04;" xml:space="preserve">
<style type="text/css">
	.st0{fill:#ECF3FE;}
	.st1{fill:#FFFFFF;}
	.st2{opacity:0.18;fill:#003889;}
	.st3{fill:#3B82F4;}
	.st4{fill:#D7E4F9;}
	.st5{fill:#4CD8BD;}
	.st6{fill:#C4D7F2;}
	.st7{font-family:'Poppins-Black';}
	.st8{font-size:107.6303px;}
	.st9{fill:#F4B545;}
</style>
<g>
	<g>
		<path class="st0" d="M672.6,1798.63h970.85c232.74-156.43,385.89-422.16,385.89-723.66c0-481.21-390.1-871.31-871.31-871.31
			s-871.31,390.1-871.31,871.31C286.71,1376.47,439.86,1642.2,672.6,1798.63z"/>
		<path class="st1" d="M821.41,613.41c-3.91,2.36-6.45,6.51-6.71,11.1l-11.15,180.39c-0.72,11.54-14.3,17.22-22.98,9.66
			L644.11,695.93c-3.47-3-8.17-4.1-12.61-2.95l-175.05,45.13c-11.13,2.89-20.73-8.28-16.24-18.88l70.6-166.4
			c1.82-4.2,1.4-9.04-1.04-12.88l-97.06-152.57c-6.16-9.7,1.5-22.29,12.97-21.28l180.09,15.77c4.54,0.37,9-1.5,11.92-5.01l5.58-6.77
			l76.25-92.36l33.25-40.31c7.33-8.88,21.67-5.49,24.27,5.74l13.91,60.22l26,112.68l0.77,3.24c1.03,4.44,4.16,8.15,8.45,9.82
			l168.15,66.35c10.69,4.24,11.93,18.92,2.04,24.86L821.41,613.41z"/>
		<path class="st0" d="M1685.43,1798.63h444.34c125.09-75.42,208.76-212.58,208.76-369.3c0-237.99-192.93-430.93-430.93-430.93
			c-237.99,0-430.93,192.93-430.93,430.93C1476.67,1586.04,1560.34,1723.21,1685.43,1798.63z"/>
		<path class="st2" d="M1583.42,1690.2l-592.68,64.27c-24.97,2.71-47.4-15.34-50.11-40.3L821.94,619.63
			c-2.71-24.97,15.34-47.4,40.3-50.11l592.68-64.27c24.97-2.71,47.4,15.34,50.11,40.3l118.69,1094.54
			C1626.44,1665.06,1608.39,1687.49,1583.42,1690.2z"/>
		<path class="st3" d="M1578.29,1679.82l-594.96,37.82c-25.06,1.59-46.67-17.43-48.27-42.5L865.23,576.4
			c-1.59-25.06,17.43-46.67,42.5-48.27l594.96-37.82c25.06-1.59,46.67,17.43,48.27,42.5l69.84,1098.74
			C1622.38,1656.61,1603.36,1678.22,1578.29,1679.82z"/>
		<ellipse class="st4" cx="1383.2" cy="1790.17" rx="998.06" ry="42.06"/>
		<g>
			<path class="st1" d="M1590.22,1773.51h-529.13c-43.62,0-78.99-35.36-78.99-78.99V660.59c0-43.62,35.36-78.99,78.99-78.99h529.13
				c43.62,0,78.99,35.36,78.99,78.99v1033.93C1669.21,1738.15,1633.84,1773.51,1590.22,1773.51z"/>
			<path class="st5" d="M1525.2,1648.07h-399.08c-25.23,0-45.67-20.45-45.67-45.67v-104.68c0-25.22,20.45-45.67,45.67-45.67h399.08
				c25.22,0,45.67,20.45,45.67,45.67v104.68C1570.87,1627.63,1550.42,1648.07,1525.2,1648.07z"/>
			<path class="st3" d="M1543.53,667.52h-435.76c-8.29,0-15.02-6.72-15.02-15.02l0,0c0-8.3,6.72-15.02,15.02-15.02h435.76
				c8.3,0,15.02,6.72,15.02,15.02l0,0C1558.55,660.79,1551.83,667.52,1543.53,667.52z"/>
			<path class="st0" d="M1457.56,1306.55h-263.81c-8.3,0-15.02-6.72-15.02-15.02l0,0c0-8.3,6.72-15.02,15.02-15.02h263.81
				c8.3,0,15.02,6.72,15.02,15.02l0,0C1472.58,1299.83,1465.85,1306.55,1457.56,1306.55z"/>
			<path class="st0" d="M1550.48,1394.32h-449.64c-8.3,0-15.02-6.72-15.02-15.02l0,0c0-8.3,6.72-15.02,15.02-15.02h449.64
				c8.3,0,15.02,6.72,15.02,15.02v0C1565.49,1387.59,1558.77,1394.32,1550.48,1394.32z"/>
			<path class="st5" d="M1328.37,1217.67c-93.93,0-170.35-76.42-170.35-170.35s76.42-170.35,170.35-170.35
				c31.57,0,62.4,8.71,89.17,25.18l-20.55,33.4c-20.58-12.66-44.31-19.36-68.62-19.36c-72.31,0-131.14,58.83-131.14,131.14
				s58.83,131.14,131.14,131.14c72.31,0,131.14-58.83,131.14-131.14c0-13.85-2.14-27.49-6.37-40.52l37.3-12.1
				c5.5,16.95,8.29,34.66,8.29,52.63C1498.73,1141.25,1422.31,1217.67,1328.37,1217.67z"/>
			<polygon class="st6" points="1332.91,1100.49 1271.47,1030.98 1300.85,1005.01 1336.32,1045.14 1526.06,876.6 1552.03,905.98 			
				"/>
			<polygon class="st5" points="1330.44,1098.44 1264.84,1032.85 1292.57,1005.12 1330.44,1042.99 1509.45,863.1 1537.18,890.83 			
				"/>
			<text transform="matrix(1 0 0 1 1114.9926 1590.2189)" class="st1 st7 st8">SUKSES</text>
		</g>
		<path class="st1" d="M2376.26,1508.1c-1.56,2.18-1.95,5-1.03,7.54l36.03,99.65c2.3,6.38-3.68,12.6-10.11,10.55l-101.05-32.02
			c-2.57-0.81-5.35-0.31-7.47,1.35l-83.66,65.07c-5.31,4.15-13.08,0.38-13.13-6.37l-0.79-105.98c0-2.68-1.35-5.19-3.56-6.69
			l-87.77-59.47c-5.58-3.78-4.39-12.34,2.02-14.47l100.57-33.48c2.53-0.86,4.49-2.9,5.25-5.48l1.42-4.94l19.5-67.46l8.5-29.44
			c1.88-6.49,10.38-8,14.39-2.56l21.51,29.16l40.24,54.57l1.17,1.57c1.59,2.15,4.13,3.42,6.83,3.31l105.93-3.48
			c6.74-0.21,10.83,7.4,6.89,12.9L2376.26,1508.1z"/>
		<path class="st1" d="M2136.35,1634.25c-0.53,0.74-0.66,1.7-0.35,2.56l12.26,33.89c0.78,2.17-1.25,4.28-3.44,3.59l-34.37-10.89
			c-0.87-0.27-1.82-0.1-2.54,0.46l-28.46,22.13c-1.81,1.41-4.45,0.13-4.47-2.17l-0.27-36.05c0-0.91-0.46-1.77-1.21-2.28
			l-29.85-20.23c-1.9-1.29-1.49-4.2,0.69-4.92l34.2-11.39c0.86-0.29,1.53-0.99,1.78-1.86l0.48-1.68l6.63-22.94l2.89-10.01
			c0.64-2.21,3.53-2.72,4.9-0.87l7.32,9.92l13.69,18.56l0.4,0.53c0.54,0.73,1.41,1.16,2.32,1.13l36.03-1.18
			c2.29-0.07,3.68,2.52,2.34,4.39L2136.35,1634.25z"/>
		<path class="st1" d="M2188.66,1710.94c-0.24,0.34-0.31,0.79-0.16,1.18l5.66,15.64c0.36,1-0.58,1.98-1.59,1.66l-15.86-5.03
			c-0.4-0.13-0.84-0.05-1.17,0.21l-13.13,10.21c-0.83,0.65-2.05,0.06-2.06-1l-0.12-16.63c0-0.42-0.21-0.81-0.56-1.05l-13.78-9.33
			c-0.88-0.59-0.69-1.94,0.32-2.27l15.78-5.25c0.4-0.13,0.71-0.46,0.82-0.86l0.22-0.78l3.06-10.59l1.33-4.62
			c0.29-1.02,1.63-1.26,2.26-0.4l3.38,4.58l6.32,8.56l0.18,0.25c0.25,0.34,0.65,0.54,1.07,0.52l16.63-0.55
			c1.06-0.03,1.7,1.16,1.08,2.02L2188.66,1710.94z"/>
		<circle class="st1" cx="1840.69" cy="806.56" r="59.31"/>
		
			<ellipse transform="matrix(0.1302 -0.9915 0.9915 0.1302 -915.0696 1665.3668)" class="st6" cx="491.62" cy="1354.22" rx="47.05" ry="47.05"/>
		<circle class="st9" cx="982.1" cy="209.3" r="60.45"/>
		
			<ellipse transform="matrix(0.7071 -0.7071 0.7071 0.7071 145.6389 1100.3102)" class="st6" cx="1401.01" cy="374.35" rx="42.74" ry="42.74"/>
		
			<ellipse transform="matrix(0.2298 -0.9732 0.9732 0.2298 832.1017 2821.4558)" class="st6" cx="2198.58" cy="885.02" rx="30.22" ry="30.22"/>
	</g>
</g>
</svg>
